Coordinates
version=1
nRows=22
nColumns=24
inDegrees=yes

Units are S.I. units (second, meters, Newtons, ...)
Angles are in degrees.

endheader
time	pelvis_tilt	pelvis_list	pelvis_rotation	pelvis_tx	pelvis_ty	pelvis_tz	hip_flexion_r	hip_adduction_r	hip_rotation_r	knee_angle_r	ankle_angle_r	subtalar_angle_r	mtp_angle_r	hip_flexion_l	hip_adduction_l	hip_rotation_l	knee_angle_l	ankle_angle_l	subtalar_angle_l	mtp_angle_l	lumbar_extension	lumbar_bending	lumbar_rotation
      1.14150000	      2.94733760	      0.55662292	     -0.49403635	     -0.05452423	      0.98673487	      0.33878002	    -24.15877250	      1.59609520	     -3.02925844	     -1.26527714	     16.83724830	      1.10141508	     -4.25846514	     16.96916139	      1.87379898	      1.88726151	      5.60955081	     -3.05003119	     -7.54880619	     -2.37957876	    -15.95992632	      5.22912436	      6.11208430
      1.14566667	      2.96402868	      0.73158515	     -0.49300291	     -0.04862419	      0.98604775	      0.33830837	    -24.27684879	      1.35085239	     -3.26606739	     -1.81349583	     17.00833349	      1.47474478	     -4.12530655	     16.95966971	      2.15182549	      2.12468742	      5.40961182	     -3.28603811	     -7.73470543	     -2.29671466	    -15.95951014	      5.00581476	      6.15750156
      1.14983333	      3.02566619	      0.93798527	     -0.49471445	     -0.04268457	      0.98547445	      0.33785582	    -24.44205325	      1.07352080	     -3.49183097	     -2.36501864	     17.14569835	      1.81383376	     -3.97596386	     16.90954839	      2.46156604	      2.34808077	      5.12336185	     -3.58237647	     -7.95757368	     -2.20585138	    -15.99129972	      4.72837564	      6.17697553
      1.15400000	      3.05479036	      1.15018732	     -0.49005199	     -0.03672294	      0.98490278	      0.33737215	    -24.55009372	      0.78961700	     -3.71700223	     -2.96352608	     17.26722264	      2.14033616	     -3.79901829	     16.91314714	      2.78075769	      2.58769167	      4.73818845	     -3.92696000	     -8.24392394	     -2.10026073	    -15.98382701	      4.45042038	      6.19723451
      1.15816667	      3.09446495	      1.37687258	     -0.48021121	     -0.03073689	      0.98438725	      0.33687664	    -24.65568044	      0.49234132	     -3.93612308	     -3.59194372	     17.35507059	      2.43351460	     -3.58171050	     16.91819876	      3.11698593	      2.83086599	      4.27162354	     -4.31377358	     -8.57659181	     -1.97277769	    -15.98661896	      4.15506487	      6.20076257
      1.16233333	      3.10417715	      1.63108853	     -0.46803708	     -0.02469402	      0.98388970	      0.33641024	    -24.75065055	      0.17737279	     -4.04809674	     -4.17523904	     17.34863921	      2.49677820	     -3.46987988	     16.97919600	      3.47966954	      3.01171439	      3.70051017	     -4.67520923	     -8.79507540	     -1.91131777	    -15.94776712	      3.80599175	      6.17727178
      1.16650000	      3.13124635	      1.86221412	     -0.44831950	     -0.01869098	      0.98344050	      0.33584259	    -24.78581282	     -0.13177339	     -4.32821482	     -4.91992998	     17.42808354	      2.91223593	     -3.21409387	     17.03028390	      3.82968239	      3.27328776	      3.08115186	     -5.21306833	     -9.34063317	     -1.77639738	    -15.93545320	      3.52854890	      6.18666268
      1.17066667	      3.14339834	      2.11387280	     -0.42460083	     -0.01264125	      0.98302213	      0.33529573	    -24.82037296	     -0.45121278	     -4.51044408	     -5.63214404	     17.40479195	      3.10502783	     -2.91100569	     17.11063750	      4.19948058	      3.49904259	      2.39386427	     -5.72703960	     -9.81457456	     -1.62283114	    -15.90249147	      3.21036427	      6.15419477
      1.17483333	      3.14302399	      2.36831759	     -0.39228320	     -0.00656904	      0.98263270	      0.33473168	    -24.82632861	     -0.76987374	     -4.67920663	     -6.37461477	     17.33894654	      3.24975272	     -2.55943089	     17.22223521	      4.57523490	      3.70899280	      1.63636415	     -6.24199667	    -10.30346132	     -1.45920118	    -15.84856188	      2.88304905	      6.12052237
      1.17900000	      3.13448552	      2.62266140	     -0.35348040	     -0.00048920	      0.98227735	      0.33415860	    -24.80861032	     -1.08381363	     -4.81949418	     -7.14431780	     17.22047627	      3.33776153	     -2.16890022	     17.35747596	      4.95257968	      3.90604794	      0.82174952	     -6.76015303	    -10.80572270	     -1.29762705	    -15.78338699	      2.55550942	      6.07397240
      1.18316667	      3.15876832	      2.87551898	     -0.30929347	      0.00561441	      0.98201581	      0.33359207	    -24.83995974	     -1.38531673	     -4.89684228	     -7.86244663	     16.86595438	      3.17458273	      3.57344932	     17.46692278	      5.32851363	      4.08438866	     -0.03731348	     -7.26526136	    -11.32362786	      0.78922434	    -15.76572881	      2.22591902	      6.02984369
      1.18733333	      3.12980810	      3.12681323	     -0.26406344	      0.01171479	      0.98172830	      0.33299252	    -24.75417059	     -1.69480458	     -5.01652795	     -8.72021296	     16.68338512	      3.22753975	      3.64097852	     17.66079231	      5.70377741	      4.19666438	     -0.97294032	     -7.70451822	    -11.74280566	      0.75086873	    -15.67684771	      1.90515405	      5.96471100
      1.19150000	      3.11326416	      3.37229777	     -0.20843212	      0.01782406	      0.98149855	      0.33237426	    -24.67693799	     -1.99030410	     -5.10164635	     -9.57946504	     16.42020674	      3.21151820	      3.80037435	     17.83604792	      6.07854740	      4.37872696	     -1.92016677	     -8.12751653	    -12.30610067	      0.70213449	    -15.60644917	      1.58864176	      5.89581577
      1.19566667	      3.13457205	      3.63264954	     -0.14552378	      0.02395635	      0.98137410	      0.33173944	    -24.62476273	     -2.29645915	     -5.20465376	    -10.46592838	     16.07784418	      3.14854628	      4.50923453	     17.94741425	      6.47168044	      4.59101096	     -2.83097272	     -8.62132386	    -12.91893147	      0.55195961	    -15.58313374	      1.25643599	      5.80236411
      1.19983333	      3.05962289	      3.83913060	     -0.09850347	      0.03005595	      0.98117852	      0.33113501	    -24.42271262	     -2.55189599	     -5.19355155	    -11.42651543	     15.67582498	      2.96578514	      4.68075666	     18.21847103	      6.79783318	      4.66461326	     -3.87776829	     -8.86953052	    -13.28416451	      0.51558414	    -15.44233281	      0.98814149	      5.75757537
      1.20400000	      3.01487752	      4.05487260	     -0.03917654	      0.03617034	      0.98106758	      0.33049492	    -24.23335661	     -2.81270319	     -5.21196125	    -12.42174120	     15.22656186	      2.79981602	      4.93781316	     18.43513939	      7.14192906	      4.80547187	     -4.89506604	     -9.13853526	    -13.76181550	      0.46150810	    -15.33970580	      0.71152581	      5.68012686
      1.20816667	      3.02492003	      4.28420433	      0.00378511	      0.04229440	      0.98108201	      0.32988097	    -24.08746863	     -3.09098714	     -5.21196527	    -13.42210044	     14.63750533	      2.53097544	     10.48274378	     18.57639195	      7.49695171	      4.93908782	     -5.89360522	     -9.33586984	    -14.25606525	     -0.63240399	    -15.30920940	      0.40212242	      5.62902682
      1.21233333	      2.99457683	      4.48029099	      0.07060055	      0.04840522	      0.98109049	      0.32922084	    -23.86025901	     -3.32760487	     -5.21358941	    -14.49649111	     14.03274349	      2.30705363	     10.53497731	     18.77136897	      7.82321305	      5.06955247	     -6.92803318	     -9.42072107	    -14.62294737	     -0.63703840	    -15.22128260	      0.15258446	      5.52697763
      1.21650000	      2.97012492	      4.67094712	      0.11760505	      0.05450533	      0.98115531	      0.32858624	    -23.60058896	     -3.56548023	     -5.17671594	    -15.63130354	     13.40159854	      2.05703638	     10.65084659	     18.94888415	      8.13954056	      5.18763252	     -7.94996524	     -9.46219233	    -15.02147467	     -0.66169896	    -15.14674683	     -0.09388636	      5.44553661
      1.22066667	      2.99492136	      4.87834557	      0.15802794	      0.06061642	      0.98133385	      0.32796947	    -23.37646989	     -3.82025624	     -5.14070787	    -16.78375756	     12.69865332	      1.80643863	     10.74998445	     19.06080968	      8.47187111	      5.28924729	     -8.96322212	     -9.39457501	    -15.37529947	     -0.68690000	    -15.13936931	     -0.38490063	      5.36738304
      1.22483333	      2.96720032	      5.01604320	      0.19977050	      0.06664388	      0.98149383	      0.32733798	    -23.02794836	     -4.00343361	     -5.05023455	    -18.03087131	     11.86933780	      1.34736915	     15.15334304	     19.23625931	      8.73182525	      5.38538551	     -9.99722869	     -9.20220101	    -15.60597167	     -1.89691120	    -15.05922962	     -0.52603272	      5.13957312
      1.22900000	      2.97135500	      5.19996454	      0.21595544	      0.07272271	      0.98174584	      0.32670280	    -22.67638765	     -4.26110021	     -5.03395913	    -19.34776597	     11.03593822	      1.16544895	     15.22533440	     19.32044045	      9.04025718	      5.53124489	    -10.92253089	     -9.06701221	    -15.99190485	     -1.90747523	    -15.01841782	     -0.78803038	      5.20279285
